<svg width="139" height="30" viewBox="0 0 139 30" fill="none" xmlns="http://www.w3.org/2000/svg">
<g clip-path="url(#clip0_6029_14836)">
<path d="M138.195 14.8095V11.5191C133.168 8.03826 124.778 9.2632 122.112 15.1667C120.62 18.4673 121.014 22.8056 123.246 25.6774C127.027 30.5465 134 30.0906 139 27.5046V19.2431H132.023V22.0638H135.379L135.294 25.8373C129.544 28.2328 124.598 24.8165 125.182 18.5047C125.719 12.7032 132.098 11.332 136.588 13.7989C136.796 13.9146 138.13 14.8843 138.195 14.8095Z" fill="white"></path>
<path d="M99.8836 9.97434H87.9407V28.9133H91.6975V20.5871H98.4094V17.6302H91.6975V12.9278H99.8836V9.97434Z" fill="white"></path>
<path d="M112.231 9.97434H108.474V28.9133H112.231V9.97434Z" fill="white"></path>
<path d="M7.69354 29.0119H0V9.98455H7.37765C11.4605 9.98455 13.1079 12.2371 13.1079 14.9626C13.1079 16.4223 12.1568 17.9433 11.0801 18.7054C12.9482 19.5289 14.1201 21.4343 14.1201 23.4317C14.1201 26.5076 12.2519 29.0119 7.69354 29.0119ZM3.86205 17.6268H6.74246C8.67519 17.6268 9.46662 16.5482 9.46662 15.1531C9.46662 13.758 8.67519 12.6794 6.74246 12.6794H3.86205V17.6268ZM7.02778 20.3217H3.86205V26.3171H7.02778C9.43265 26.3171 10.3837 25.0173 10.3837 23.3058C10.3837 21.5943 9.43265 20.3251 7.02778 20.3251V20.3217Z" fill="white"></path>
<path d="M52.5199 14.8095V11.5191C47.4927 8.03826 39.1029 9.2632 36.4365 15.1667C34.9453 18.4673 35.3393 22.8056 37.571 25.6774C41.3515 30.5465 48.3249 30.0906 53.3249 27.5046V19.2431H46.3481V22.0638H49.704L49.6191 25.8373C43.8685 28.2328 38.9229 24.8165 39.5071 18.5047C40.0438 12.7032 46.4228 11.332 50.9132 13.7989C51.1204 13.9146 52.4553 14.8843 52.5199 14.8095Z" fill="white"></path>
<path d="M27.0309 10.073H23.2742V29.0119H27.0309V10.073Z" fill="white"></path>
<path d="M75.2608 3.91769C75.2405 3.84964 75.1929 3.6659 75.2031 3.50938C75.254 2.46478 74.9721 1.28748 73.9055 0.828124C73.2806 0.555915 72.5469 0.538902 71.8811 0.555915C71.7928 0.586539 71.7385 0.630773 71.7418 0.743059C71.6977 3.21335 72.8865 4.16608 75.2608 3.94151V3.91769Z" fill="white"></path>
<path d="M75.254 26.2422V13.7342C71.8064 13.7342 69.0109 16.5346 69.0109 19.9882C69.0109 23.4419 71.8064 26.2422 75.254 26.2422Z" fill="white"></path>
<path d="M75.271 27.9333C70.9368 27.9333 67.4246 24.415 67.4246 20.0733C67.4246 15.7316 70.9368 12.2133 75.271 12.2133V5.0916C75.0876 5.02355 74.8668 4.98272 74.629 4.98272C74.0448 4.98272 73.5692 5.2277 73.5115 5.53734H73.5013C73.3654 6.08516 73.3519 6.63298 73.1379 7.1842C72.4789 8.88551 68.3655 12.3221 66.9559 13.9554C64.4559 16.8578 63.8241 20.6381 65.4409 24.1564C67.1257 27.8176 71.3206 29.7469 75.2676 29.4033V27.9299L75.271 27.9333Z" fill="white"></path>
</g>
<defs>
<clipPath id="clip0_6029_14836">
<rect width="139" height="28.895" fill="white" transform="translate(0 0.552517)"></rect>
</clipPath>
</defs>
</svg>
