<svg xmlns="http://www.w3.org/2000/svg" viewBox="0 0 1024 136" width="100%" height="100%">
  <path d="M 542 135 L 593 135 L 590 121 L 602 118 L 613 107 L 638 115 L 646 135 L 686 135 L 702 118 L 703 105 L 697 104 L 696 91 L 706 79 L 718 91 L 723 91 L 729 102 L 727 126 L 717 135 L 823 135 L 830 129 L 833 132 L 853 116 L 859 106 L 890 94 L 919 64 L 924 37 L 933 25 L 955 29 L 970 41 L 959 29 L 966 31 L 950 18 L 974 28 L 977 25 L 991 34 L 995 18 L 990 8 L 979 0 L 680 0 L 689 10 L 689 16 L 684 16 L 684 11 L 682 16 L 672 7 L 671 13 L 661 0 L 560 0 L 562 31 L 560 34 L 553 31 L 562 41 L 560 45 L 553 43 L 562 57 L 555 72 L 550 74 L 559 83 L 557 99 L 554 99 L 559 107 Z M 695 116 L 697 116 L 698 117 L 698 119 L 697 120 L 697 121 L 698 122 L 698 123 L 696 125 L 695 125 L 694 124 L 694 120 L 695 119 L 694 118 L 694 117 Z M 598 113 L 599 114 L 599 115 L 597 117 L 597 118 L 596 119 L 595 119 L 594 118 L 594 117 L 595 116 L 595 115 L 597 113 Z M 629 96 L 630 95 L 631 95 L 632 94 L 633 94 L 634 95 L 635 95 L 635 93 L 637 91 L 639 91 L 644 96 L 645 96 L 663 114 L 663 118 L 664 119 L 664 121 L 663 122 L 662 122 L 662 123 L 661 124 L 656 124 L 655 123 L 655 122 L 653 120 L 653 119 L 652 118 L 652 117 L 651 116 L 651 115 L 650 114 L 650 113 L 649 113 L 648 112 L 648 110 L 647 109 L 647 107 L 646 106 L 645 106 L 644 105 L 643 105 L 642 104 L 640 104 L 638 102 L 636 102 L 635 101 L 635 99 L 634 100 L 632 100 L 631 99 L 631 98 L 630 98 L 629 97 Z M 677 78 L 678 77 L 680 77 L 683 80 L 683 81 L 682 82 L 680 82 L 677 79 Z M 642 73 L 646 73 L 647 74 L 647 78 L 648 77 L 649 77 L 650 76 L 652 76 L 653 77 L 654 77 L 655 78 L 655 80 L 654 81 L 654 82 L 655 81 L 656 81 L 657 80 L 659 80 L 661 82 L 661 83 L 662 84 L 662 85 L 661 86 L 662 87 L 666 87 L 667 88 L 668 88 L 669 89 L 669 90 L 670 91 L 670 93 L 669 94 L 672 94 L 674 96 L 674 99 L 672 101 L 673 101 L 674 100 L 676 100 L 678 102 L 678 104 L 675 107 L 675 108 L 673 110 L 672 110 L 671 111 L 670 111 L 668 109 L 668 105 L 664 101 L 663 101 L 661 99 L 660 99 L 654 93 L 653 93 L 649 89 L 649 88 L 648 87 L 647 87 L 646 86 L 645 86 L 642 83 L 641 84 L 639 84 L 638 83 L 638 80 L 639 79 L 639 78 L 641 76 L 641 74 Z M 653 66 L 656 66 L 658 68 L 658 69 L 657 70 L 656 70 L 659 73 L 659 74 L 658 75 L 657 75 L 652 70 L 652 67 Z M 664 67 L 665 66 L 666 66 L 667 65 L 668 65 L 669 66 L 669 65 L 670 64 L 672 64 L 674 66 L 674 67 L 675 68 L 676 68 L 677 69 L 678 69 L 682 73 L 682 76 L 681 77 L 679 77 L 677 75 L 678 76 L 678 77 L 677 78 L 675 78 L 673 76 L 673 75 L 671 75 L 664 68 Z M 633 53 L 633 54 L 632 55 L 627 55 L 626 56 L 625 56 L 625 57 L 622 60 L 621 60 L 620 59 L 620 56 L 621 55 L 622 55 L 624 53 L 626 53 L 627 52 L 628 52 L 629 51 L 631 51 Z M 732 50 L 733 49 L 734 49 L 735 50 L 736 50 L 737 51 L 737 52 L 738 53 L 738 52 L 739 51 L 740 51 L 741 52 L 741 53 L 742 54 L 743 54 L 744 55 L 746 55 L 747 56 L 748 56 L 752 60 L 752 61 L 753 62 L 753 64 L 755 66 L 755 67 L 753 69 L 754 68 L 755 68 L 756 69 L 756 73 L 755 74 L 751 74 L 750 73 L 749 73 L 748 72 L 748 70 L 749 69 L 749 68 L 748 68 L 746 66 L 745 66 L 744 65 L 742 65 L 741 64 L 740 64 L 739 63 L 739 62 L 738 62 L 736 60 L 736 59 L 734 59 L 733 58 L 733 57 L 735 55 L 735 54 L 732 51 Z M 673 48 L 674 49 L 674 51 L 673 52 L 669 52 L 669 54 L 667 56 L 666 56 L 664 54 L 664 52 L 666 50 L 666 49 L 667 48 L 668 48 L 669 47 L 670 47 L 671 48 Z M 683 45 L 686 45 L 687 46 L 692 46 L 693 47 L 694 47 L 695 48 L 695 50 L 696 50 L 697 51 L 697 53 L 698 54 L 698 56 L 700 58 L 700 61 L 699 62 L 699 64 L 698 65 L 697 65 L 697 66 L 698 67 L 698 69 L 699 69 L 700 70 L 700 71 L 699 72 L 699 77 L 697 79 L 696 79 L 695 80 L 693 80 L 691 78 L 691 77 L 693 75 L 694 75 L 694 74 L 695 73 L 694 72 L 694 69 L 695 68 L 693 68 L 692 67 L 692 66 L 693 65 L 694 65 L 693 65 L 692 64 L 688 64 L 687 65 L 685 65 L 683 67 L 682 67 L 681 68 L 680 68 L 679 67 L 679 68 L 678 69 L 677 69 L 676 68 L 676 66 L 677 65 L 677 62 L 678 61 L 678 54 L 679 53 L 679 49 L 680 48 L 680 47 L 681 46 L 682 46 Z M 665 38 L 664 42 L 657 47 L 656 51 L 650 54 L 645 53 L 642 51 L 644 47 L 648 47 L 640 46 L 639 47 L 631 47 L 630 48 L 624 49 L 620 53 L 619 55 L 619 59 L 615 66 L 608 72 L 607 76 L 605 78 L 605 80 L 602 84 L 599 83 L 600 80 L 602 78 L 601 77 L 600 80 L 598 82 L 596 81 L 595 82 L 593 81 L 590 82 L 592 83 L 593 86 L 592 88 L 584 84 L 585 81 L 588 78 L 588 75 L 586 74 L 588 69 L 586 66 L 586 64 L 588 62 L 593 61 L 590 61 L 588 57 L 590 55 L 592 55 L 593 56 L 592 58 L 595 58 L 598 53 L 600 54 L 600 53 L 597 52 L 597 55 L 595 56 L 593 54 L 593 51 L 595 50 L 596 48 L 598 48 L 599 50 L 600 50 L 600 49 L 598 48 L 599 45 L 601 44 L 602 45 L 601 47 L 604 46 L 604 45 L 607 43 L 605 43 L 604 40 L 607 39 L 607 38 L 613 33 L 618 31 L 621 31 L 623 28 L 627 28 L 631 25 L 634 26 L 634 25 L 636 24 L 638 26 L 644 26 L 645 27 L 647 26 L 648 28 L 650 27 L 653 30 L 653 32 L 655 32 Z M 708 13 L 710 13 L 711 12 L 712 12 L 713 13 L 713 14 L 714 15 L 715 14 L 716 14 L 718 16 L 718 17 L 719 16 L 720 16 L 721 17 L 725 17 L 726 18 L 727 18 L 728 17 L 729 17 L 730 18 L 730 20 L 729 21 L 728 21 L 729 22 L 729 23 L 730 23 L 731 24 L 731 25 L 731 24 L 732 23 L 733 23 L 734 24 L 734 26 L 735 27 L 735 28 L 734 29 L 731 29 L 730 30 L 728 30 L 728 31 L 727 32 L 726 32 L 726 34 L 725 35 L 724 35 L 723 34 L 723 38 L 724 39 L 724 41 L 722 43 L 721 43 L 720 44 L 719 44 L 718 43 L 718 42 L 719 41 L 720 41 L 716 41 L 715 40 L 715 36 L 712 36 L 711 35 L 711 34 L 710 33 L 709 33 L 707 31 L 705 31 L 703 29 L 703 28 L 702 27 L 701 27 L 699 25 L 699 22 L 700 21 L 700 20 L 703 17 L 706 17 L 707 16 L 707 14 Z M 0 0 L 0 135 L 412 135 L 352 111 L 279 102 L 275 91 L 272 97 L 268 94 L 274 68 L 282 61 L 282 72 L 289 57 L 341 60 L 405 100 L 445 106 L 486 89 L 482 80 L 491 70 L 485 57 L 488 42 L 480 35 L 481 20 L 470 14 L 470 0 L 434 0 L 423 25 L 421 0 L 401 0 L 391 9 L 383 5 L 369 31 L 379 37 L 379 47 L 392 47 L 404 59 L 405 73 L 421 86 L 443 86 L 449 94 L 450 87 L 479 86 L 450 104 L 403 97 L 355 60 L 325 55 L 308 42 L 268 49 L 175 32 L 151 36 L 144 30 L 144 37 L 108 34 L 112 27 L 86 25 L 93 12 L 99 20 L 102 9 L 106 13 L 114 6 L 117 11 L 135 0 Z M 186 110 L 187 109 L 188 109 L 190 111 L 190 113 L 189 114 L 188 114 L 186 112 Z M 195 101 L 196 100 L 197 100 L 198 101 L 200 101 L 201 102 L 201 103 L 203 105 L 203 106 L 202 107 L 201 107 L 200 108 L 197 108 L 196 107 L 196 106 L 197 105 L 197 104 L 197 105 L 196 106 L 195 106 L 194 105 L 194 104 L 195 103 Z M 81 82 L 82 83 L 82 84 L 81 85 L 81 86 L 79 88 L 78 88 L 76 86 L 76 85 L 77 84 L 78 84 L 80 82 Z M 59 63 L 60 63 L 61 64 L 61 68 L 60 69 L 57 69 L 56 68 L 56 66 L 57 65 L 58 65 L 58 64 Z M 448 61 L 449 60 L 450 60 L 452 58 L 455 58 L 456 59 L 457 59 L 458 60 L 458 62 L 459 63 L 459 64 L 456 67 L 453 67 L 452 66 L 450 66 L 448 64 Z M 55 55 L 63 55 L 66 57 L 66 59 L 67 57 L 69 57 L 72 62 L 73 60 L 77 60 L 78 62 L 80 61 L 80 65 L 85 63 L 88 66 L 88 71 L 89 69 L 91 71 L 95 71 L 92 74 L 96 73 L 98 75 L 97 71 L 102 69 L 103 71 L 100 78 L 103 75 L 107 78 L 106 80 L 109 81 L 108 83 L 113 82 L 115 80 L 115 77 L 119 79 L 118 77 L 121 76 L 121 80 L 125 80 L 129 82 L 131 85 L 133 84 L 134 87 L 138 85 L 147 87 L 148 85 L 151 86 L 150 84 L 152 83 L 154 87 L 157 87 L 163 91 L 169 92 L 174 88 L 178 91 L 179 98 L 176 99 L 180 100 L 181 98 L 184 98 L 186 102 L 189 102 L 191 104 L 191 106 L 187 109 L 185 108 L 185 111 L 181 107 L 181 110 L 176 114 L 173 114 L 172 112 L 168 113 L 168 110 L 166 112 L 163 110 L 161 114 L 159 114 L 157 111 L 154 112 L 152 110 L 146 113 L 145 111 L 142 111 L 140 109 L 134 110 L 132 108 L 129 108 L 126 104 L 122 103 L 122 106 L 118 106 L 114 102 L 108 102 L 105 98 L 105 95 L 99 94 L 96 91 L 94 91 L 96 93 L 96 95 L 94 96 L 90 90 L 84 90 L 84 87 L 87 88 L 86 84 L 83 84 L 84 79 L 81 78 L 78 83 L 73 83 L 70 77 L 75 74 L 76 76 L 74 79 L 77 79 L 78 70 L 77 74 L 74 72 L 65 73 L 61 70 L 60 61 L 59 63 L 56 63 L 56 66 L 54 66 L 53 62 L 57 60 Z M 301 47 L 302 46 L 306 46 L 307 47 L 308 46 L 309 46 L 310 47 L 310 48 L 309 49 L 308 49 L 307 50 L 306 50 L 305 51 L 304 51 L 303 50 L 303 49 L 302 49 L 301 48 Z M 428 46 L 429 45 L 430 45 L 432 43 L 433 43 L 434 42 L 446 42 L 448 44 L 448 45 L 449 46 L 449 49 L 447 51 L 446 51 L 445 52 L 440 52 L 439 53 L 434 53 L 433 52 L 432 52 L 431 51 L 430 51 L 429 50 L 429 49 L 428 48 Z M 419 41 L 421 41 L 422 42 L 422 43 L 421 44 L 423 44 L 424 45 L 424 47 L 425 48 L 425 49 L 426 50 L 426 51 L 427 51 L 429 53 L 429 57 L 430 57 L 430 55 L 431 54 L 432 54 L 433 55 L 434 55 L 435 56 L 437 56 L 438 57 L 439 57 L 440 58 L 440 61 L 441 61 L 442 62 L 442 63 L 444 65 L 444 66 L 445 66 L 446 67 L 446 69 L 445 70 L 445 71 L 443 73 L 438 73 L 435 70 L 435 69 L 434 68 L 433 68 L 432 69 L 429 69 L 428 68 L 428 66 L 427 65 L 427 64 L 426 63 L 426 61 L 425 60 L 425 57 L 424 56 L 424 55 L 423 54 L 423 53 L 422 52 L 422 51 L 420 49 L 420 48 L 419 47 L 419 46 L 418 45 L 418 42 Z M 462 39 L 463 38 L 464 38 L 465 39 L 465 40 L 467 40 L 469 42 L 469 43 L 468 44 L 465 44 L 464 43 L 463 43 L 462 42 Z M 457 38 L 460 41 L 460 43 L 459 44 L 459 45 L 460 45 L 461 46 L 461 49 L 458 52 L 457 52 L 456 53 L 455 53 L 454 54 L 450 54 L 449 53 L 449 50 L 450 49 L 450 47 L 449 46 L 449 44 L 450 43 L 450 40 L 451 39 L 454 39 L 455 38 Z M 425 32 L 426 32 L 428 34 L 428 37 L 427 38 L 426 38 L 425 37 L 425 36 L 424 35 L 424 33 Z M 406 33 L 407 32 L 409 32 L 410 33 L 410 35 L 411 36 L 412 36 L 414 38 L 414 40 L 413 41 L 412 41 L 406 35 Z M 83 25 L 84 25 L 85 26 L 85 27 L 84 28 L 84 29 L 85 30 L 85 31 L 84 32 L 82 32 L 81 31 L 81 27 Z M 452 23 L 459 23 L 460 24 L 460 25 L 461 26 L 461 34 L 460 35 L 453 35 L 452 34 L 452 31 L 451 30 L 451 24 Z M 450 28 L 450 30 L 451 31 L 451 32 L 449 34 L 447 34 L 446 35 L 443 35 L 442 36 L 440 36 L 439 37 L 438 37 L 437 36 L 434 36 L 432 34 L 432 30 L 433 29 L 435 29 L 437 27 L 442 27 L 443 26 L 445 26 L 442 26 L 441 25 L 441 24 L 442 23 L 446 23 L 448 25 L 448 26 Z M 414 8 L 415 8 L 417 10 L 417 13 L 418 14 L 418 15 L 417 16 L 418 17 L 418 20 L 419 21 L 419 23 L 418 24 L 418 25 L 420 27 L 420 28 L 419 29 L 418 29 L 417 28 L 419 30 L 419 33 L 416 36 L 415 36 L 414 35 L 414 34 L 412 32 L 412 31 L 410 29 L 410 27 L 410 31 L 409 32 L 408 32 L 406 30 L 405 30 L 404 29 L 404 28 L 400 28 L 399 27 L 399 26 L 400 25 L 401 25 L 401 22 L 402 21 L 402 20 L 403 19 L 405 19 L 404 18 L 404 17 L 407 14 L 408 14 L 409 13 L 412 13 L 411 13 L 410 12 L 410 11 L 411 10 L 413 10 L 413 9 Z M 466 9 L 466 12 L 464 14 L 464 15 L 462 17 L 461 17 L 460 16 L 458 16 L 457 15 L 455 15 L 455 18 L 454 19 L 453 19 L 452 20 L 449 20 L 448 21 L 446 21 L 445 22 L 442 22 L 441 21 L 441 18 L 442 17 L 442 15 L 444 13 L 445 13 L 446 12 L 447 12 L 448 13 L 448 14 L 446 16 L 445 16 L 446 16 L 447 15 L 449 15 L 450 14 L 451 14 L 449 14 L 448 13 L 448 12 L 449 11 L 450 11 L 451 10 L 454 10 L 456 8 L 458 8 L 458 7 L 459 6 L 460 6 L 461 7 L 464 7 Z" fill="#D4AF37" fill-rule="evenodd" />
</svg>