<svg xmlns="http://www.w3.org/2000/svg" viewBox="0 0 500 237" width="100%" height="100%">
  <path d="M 10 76 L 11 95 L 21 115 L 42 137 L 67 155 L 136 188 L 227 213 L 308 223 L 361 223 L 410 217 L 442 208 L 463 198 L 483 181 L 491 164 L 490 144 L 481 126 L 463 106 L 433 84 L 393 63 L 355 48 L 265 25 L 177 16 L 100 21 L 70 28 L 39 41 L 18 59 Z M 438 154 L 438 165 L 435 172 L 426 182 L 418 187 L 391 196 L 361 200 L 319 200 L 279 196 L 227 186 L 187 174 L 188 172 L 231 182 L 272 188 L 297 190 L 343 190 L 371 187 L 402 179 L 419 170 L 427 162 L 430 157 L 433 145 L 435 146 Z M 327 86 L 329 84 L 358 84 L 366 87 L 372 93 L 374 97 L 373 110 L 367 117 L 375 129 L 375 85 L 376 84 L 407 84 L 409 86 L 409 100 L 408 101 L 393 102 L 393 105 L 408 105 L 409 106 L 409 119 L 407 121 L 393 121 L 393 124 L 394 125 L 395 124 L 407 124 L 409 126 L 409 141 L 408 142 L 361 142 L 347 117 L 345 116 L 345 141 L 344 142 L 328 142 L 327 141 Z M 346 102 L 346 111 L 351 111 L 352 110 L 353 110 L 354 109 L 354 107 L 355 106 L 354 105 L 354 104 L 352 102 Z M 92 141 L 92 86 L 94 84 L 108 84 L 112 88 L 126 110 L 127 110 L 126 86 L 128 84 L 160 84 L 163 89 L 170 115 L 174 106 L 179 86 L 181 84 L 199 85 L 179 142 L 161 141 L 145 95 L 144 95 L 144 141 L 143 142 L 126 142 L 111 119 L 110 119 L 110 141 L 109 142 Z M 73 84 L 89 84 L 90 85 L 90 141 L 89 142 L 73 142 L 72 141 L 72 85 Z M 325 85 L 324 142 L 309 142 L 307 132 L 286 132 L 278 139 L 268 143 L 252 142 L 239 133 L 241 138 L 240 142 L 224 142 L 222 140 L 220 132 L 203 132 L 200 142 L 182 141 L 200 88 L 203 84 L 220 84 L 223 88 L 232 113 L 233 105 L 236 98 L 248 86 L 255 83 L 264 82 L 273 84 L 280 88 L 286 95 L 275 106 L 267 101 L 261 100 L 256 102 L 251 108 L 251 117 L 256 124 L 262 126 L 272 122 L 309 84 Z M 307 111 L 306 111 L 303 114 L 303 115 L 301 117 L 300 117 L 300 118 L 307 118 Z M 211 105 L 211 106 L 210 107 L 210 110 L 209 111 L 209 113 L 208 114 L 208 117 L 207 118 L 215 118 L 215 116 L 214 115 L 214 113 L 213 112 L 213 109 L 212 108 L 212 106 Z M 220 49 L 221 48 L 226 48 L 227 49 L 227 50 L 226 51 L 221 51 L 220 50 Z M 220 48 L 219 50 L 197 49 L 196 48 L 145 48 L 144 49 L 134 49 L 133 50 L 126 50 L 125 51 L 119 51 L 118 52 L 113 52 L 108 54 L 104 54 L 100 56 L 91 58 L 76 65 L 70 69 L 64 75 L 60 82 L 60 84 L 58 86 L 56 85 L 57 76 L 59 71 L 69 60 L 84 52 L 93 49 L 104 47 L 105 46 L 117 45 L 118 44 L 126 44 L 127 43 L 165 42 L 166 43 L 195 44 L 196 45 L 204 45 L 205 46 L 212 46 L 213 47 L 219 47 Z" fill="#0953AA" fill-rule="evenodd" />
</svg>