<svg xmlns="http://www.w3.org/2000/svg" viewBox="0 0 530 290" width="100%" height="100%">
  <path d="M 0 0 L 5 34 L 23 50 L 17 67 L 0 68 L 0 110 L 11 116 L 15 126 L 11 136 L 0 136 L 0 188 L 16 190 L 19 175 L 38 164 L 56 172 L 23 206 L 44 219 L 45 235 L 32 245 L 14 241 L 18 236 L 8 227 L 0 227 L 0 289 L 529 289 L 529 0 L 170 0 L 166 37 L 136 42 L 102 25 L 81 30 L 78 0 L 59 0 L 62 8 L 48 20 L 40 19 L 31 6 L 18 11 L 14 0 Z M 90 254 L 91 253 L 95 253 L 96 252 L 97 252 L 98 253 L 99 253 L 100 254 L 100 255 L 99 256 L 91 256 L 90 255 Z M 82 254 L 84 252 L 85 252 L 87 254 L 87 255 L 86 256 L 83 256 L 82 255 Z M 67 253 L 68 252 L 68 251 L 70 249 L 72 249 L 73 250 L 75 250 L 76 251 L 77 251 L 78 252 L 78 254 L 77 255 L 68 255 L 67 254 Z M 107 235 L 109 233 L 110 233 L 111 234 L 114 234 L 114 233 L 116 231 L 119 231 L 120 232 L 121 232 L 122 233 L 122 234 L 123 235 L 129 235 L 130 236 L 130 237 L 131 237 L 133 239 L 133 242 L 132 243 L 131 243 L 130 244 L 131 245 L 131 246 L 130 247 L 127 247 L 126 246 L 122 246 L 119 243 L 118 243 L 117 242 L 117 243 L 116 244 L 115 244 L 114 243 L 114 239 L 113 238 L 112 238 L 111 239 L 110 239 L 107 236 Z M 197 200 L 199 198 L 200 198 L 202 200 L 202 201 L 201 202 L 198 202 L 197 201 Z M 72 163 L 80 163 L 83 166 L 84 166 L 85 167 L 85 169 L 86 170 L 86 176 L 85 177 L 85 180 L 82 183 L 80 183 L 79 184 L 73 184 L 72 183 L 71 183 L 70 182 L 69 182 L 67 180 L 67 177 L 66 176 L 66 174 L 67 173 L 67 170 L 68 169 L 68 168 L 69 167 L 69 166 Z M 37 151 L 37 149 L 38 148 L 41 148 L 42 149 L 42 150 L 40 152 L 38 152 Z M 50 135 L 53 138 L 53 139 L 54 140 L 54 141 L 53 142 L 53 143 L 52 144 L 51 144 L 50 145 L 49 145 L 47 147 L 45 147 L 44 146 L 44 145 L 43 144 L 43 139 L 47 135 Z M 16 135 L 20 139 L 20 141 L 18 143 L 17 143 L 16 144 L 13 144 L 12 145 L 11 145 L 10 144 L 10 137 L 12 135 Z M 149 133 L 150 134 L 150 139 L 148 141 L 147 141 L 146 142 L 145 142 L 143 140 L 143 137 L 147 133 Z M 98 122 L 102 122 L 104 120 L 105 120 L 106 119 L 108 119 L 111 122 L 114 122 L 115 123 L 115 125 L 116 126 L 116 127 L 117 126 L 121 126 L 123 128 L 123 130 L 122 131 L 119 131 L 116 134 L 116 135 L 114 137 L 114 138 L 112 140 L 111 140 L 110 139 L 109 139 L 108 138 L 106 138 L 104 140 L 103 140 L 101 138 L 100 138 L 99 137 L 99 135 L 97 133 L 96 133 L 94 131 L 94 130 L 95 129 L 95 126 L 96 125 L 96 124 Z M 100 68 L 102 68 L 103 69 L 103 70 L 105 72 L 105 74 L 103 76 L 100 76 L 99 75 L 98 75 L 97 74 L 97 71 Z M 16 71 L 20 74 L 20 72 L 28 65 L 32 70 L 38 70 L 44 74 L 45 76 L 44 85 L 37 94 L 37 97 L 45 97 L 47 94 L 50 94 L 51 96 L 54 97 L 59 90 L 63 92 L 69 86 L 71 81 L 73 79 L 82 74 L 91 75 L 98 80 L 98 85 L 93 96 L 88 96 L 91 97 L 95 103 L 95 110 L 94 112 L 88 117 L 86 124 L 83 124 L 81 121 L 78 121 L 77 122 L 72 121 L 71 124 L 72 126 L 72 134 L 77 140 L 79 145 L 77 155 L 74 159 L 64 159 L 62 157 L 63 155 L 61 154 L 61 152 L 58 149 L 55 143 L 54 134 L 52 133 L 50 135 L 49 133 L 46 132 L 44 127 L 40 123 L 40 119 L 32 112 L 25 112 L 20 108 L 19 103 L 22 99 L 22 91 L 23 90 L 22 89 L 22 85 L 20 83 L 19 79 L 15 76 L 15 72 Z M 121 64 L 122 63 L 123 63 L 125 61 L 126 61 L 127 60 L 131 60 L 133 62 L 136 62 L 137 63 L 138 63 L 142 67 L 144 67 L 145 68 L 145 69 L 146 70 L 146 71 L 148 73 L 148 74 L 147 75 L 147 76 L 145 78 L 144 78 L 140 82 L 138 82 L 137 81 L 134 81 L 133 80 L 132 81 L 130 81 L 129 80 L 128 80 L 127 79 L 126 79 L 124 77 L 124 76 L 122 74 L 122 73 L 121 72 L 121 70 L 120 69 L 120 67 L 121 66 Z M 472 47 L 474 47 L 475 48 L 475 52 L 474 53 L 474 54 L 473 55 L 472 55 L 471 54 L 471 48 Z" fill="#1C3B2B" fill-rule="evenodd" />
</svg>