<svg viewBox="0 0 260.44 56.77" xmlns="http://www.w3.org/2000/svg" data-name="Layer 2" id="Layer_2">
  <defs>
    <style>
      .cls-1 {
        fill: #00b5e2;
      }
    </style>
  </defs>
  <g data-name="Layer 1" id="Layer_1-2">
    <g>
      <g>
        <path d="M234.71,19c0,2.49-2.16,4.5-4.83,4.5s-4.82-2.02-4.82-4.5,2.16-4.5,4.82-4.5,4.83,2.02,4.83,4.5" class="cls-1"></path>
        <path d="M253.16,36.9c-.25-.36-.74-.49-1.12-.27-.73.4-1.24.53-1.99.53-.96,0-1.7-.42-1.7-1.96,0-5.16,0-10.32,0-15.48,0-4.05-1.77-6.04-4.1-7.17-1.51-.73-3.96-1.25-5.92-1.25-1.7,0-3.06.06-4.58.35-.41.08-.71.44-.71.85v.6c0,.47.38.87.86.87,2.17,0,5.89,1.08,5.89,4.73,0,.97,0,3.93,0,7.17,0,.18-.17.3-.34.25-5.53-1.62-16.52-.49-16.21,8.57.14,3.95,2.79,7.55,8.45,7.55,3.05,0,5.06-1.27,6.44-2.38.29-.23.39-.62.27-.97l-.31-.84c-.15-.4-.56-.64-.98-.55-.4.08-.85.12-1.37.1-2.08-.1-4.03-1.08-4.03-4.63,0-2.89,1.65-5.51,7.38-4.3.41.09.7.45.7.86,0,2.74,0,3.98,0,6.07,0,2.77,2.06,6.65,6.58,6.65,4.16,0,6.31-2.76,7.11-3.9.2-.29.21-.67.02-.97-.1-.15-.21-.31-.31-.47" class="cls-1"></path>
        <path d="M0,39.39v1.03c0,.48.39.87.87.87h12.1c.48,0,.87-.39.87-.87V5.47c0-.42.3-.78.72-.85l3.08-.54c.41-.07.72-.43.72-.85v-.98c0-.48-.39-.87-.87-.87H.87c-.48,0-.87.39-.87.87v1.03c0,.42.3.78.71.85l2.68.49c.41.08.71.43.71.85v31.73c0,.42-.3.78-.71.85l-2.68.49c-.41.08-.71.43-.71.85" class="cls-1"></path>
        <path d="M29.93,26.89c-.38,0-.71.24-.83.6-.5,1.59-1.87,5.91-2.46,7.75-.42,1.29-1.12,2.98-5.79,2.98h-3.2c-.48,0-.87.39-.87.87v1.33c0,.48.39.87.87.87h13.61c.48,0,.87-.39.87-.87v-12.66c0-.48-.39-.87-.87-.87h-1.34Z" class="cls-1"></path>
        <path d="M49.61,38.06l2.3.47c.4.08.69.44.69.85v1.04c0,.48-.39.87-.87.87h-14.56c-.48,0-.87-.39-.87-.87v-1.03c0-.42.3-.78.71-.85l2.69-.49c.41-.08.71-.43.71-.85v-19.43c0-.52-.45-.92-.96-.86l-1.92.2c-.78.08-1.23-.32-1.23-.83v-1.47c0-.41.29-.76.69-.85l10.74-2.29c.25-.05.51,0,.71.16l.13.1c.21.16.34.42.34.69v24.59c0,.41.29.77.69.85" class="cls-1"></path>
        <path d="M49.37,4.46c0,2.46-2.14,4.46-4.78,4.46s-4.78-2-4.78-4.46,2.14-4.46,4.78-4.46,4.78,2,4.78,4.46" class="cls-1"></path>
        <path d="M69.58,38.06l2.3.47c.4.08.69.44.69.85v1.04c0,.48-.39.87-.87.87h-14.56c-.48,0-.87-.39-.87-.87v-1.03c0-.42.3-.78.71-.85l2.69-.49c.41-.08.71-.43.71-.85v-19.43c0-.52-.45-.92-.96-.86l-1.92.2c-.78.08-1.23-.32-1.23-.83v-1.47c0-.41.29-.76.69-.85l10.74-2.29c.25-.05.51,0,.71.16l.13.1c.21.16.34.42.34.69v24.59c0,.41.29.77.69.85" class="cls-1"></path>
        <path d="M87.08,38.06c-.4-.08-.69-.44-.69-.85,0-2.87,0-13.69,0-17.63,0-4.88-1.64-8.46-7.8-8.46-2.64,0-5.65,1.55-7.47,4.16-.2.29-.21.68-.01.98l.4.6c.25.38.76.5,1.16.27.62-.36,1.26-.64,2.26-.64,1.76,0,2.95,1.21,2.95,4.26,0,4.94,0,13.96,0,16.48,0,.4-.27.74-.65.84l-1.64.42c-.38.1-.65.44-.65.84v1.08c0,.48.39.87.87.87h13.35c.48,0,.87-.39.87-.87,0-.36,0-.73,0-1.04,0-.41-.29-.77-.69-.85l-2.26-.47Z" class="cls-1"></path>
        <path d="M137.17,38.06l2.3.47c.4.08.69.44.69.85v1.04c0,.48-.39.87-.87.87h-14.56c-.48,0-.87-.39-.87-.87v-1.03c0-.42.3-.78.71-.85l2.69-.49c.41-.08.71-.43.71-.85v-19.43c0-.52-.45-.92-.96-.86l-1.92.2c-.78.08-1.23-.32-1.23-.83v-1.47c0-.41.29-.76.69-.85l10.74-2.29c.25-.05.51,0,.71.16l.13.1c.21.16.34.42.34.69v24.59c0,.41.29.77.69.85" class="cls-1"></path>
        <path d="M154.68,38.06c-.4-.08-.69-.44-.69-.85,0-2.87,0-13.69,0-17.63,0-4.88-1.64-8.46-7.8-8.46-2.64,0-5.65,1.55-7.47,4.16-.2.29-.21.68-.01.98l.4.6c.25.38.76.5,1.16.27.62-.36,1.26-.64,2.26-.64,1.76,0,2.95,1.21,2.95,4.26,0,4.94,0,13.96,0,16.48,0,.4-.27.74-.65.84l-1.64.42c-.38.1-.65.44-.65.84v1.08c0,.48.39.87.87.87h13.35c.48,0,.87-.39.87-.87,0-.36,0-.73,0-1.04,0-.41-.29-.77-.69-.85l-2.26-.47Z" class="cls-1"></path>
        <path d="M182.66,16.56c0,2.29-1.99,4.15-4.45,4.15s-4.45-1.86-4.45-4.15,1.99-4.15,4.45-4.15,4.45,1.86,4.45,4.15" class="cls-1"></path>
        <path d="M175.27,22.91c-2.15-.89-7.27-1.86-7.27-5.09s2.55-4.1,4.35-4.27c.44-.04.77-.42.77-.86v-.69c0-.49-.41-.89-.9-.87-4.26.16-10.61,2.86-10.61,9.59s5.41,8.28,8.2,9.25c1.42.49,6.91,1.73,6.67,5.6-.09,1.49-1.32,3.6-4.59,3.6-4.6,0-4.74-4.08-4.64-5.71.02-.38-.2-.73-.56-.87-.48-.18-1.26-.37-2.44-.37-2.81,0-3.55,2-3.55,3.66,0,1,.63,6.37,11.03,6.37,5.37,0,11.89-2.57,11.89-9.91s-6.29-8.56-8.36-9.41" class="cls-1"></path>
        <path d="M208.39,11.13c-4.45,0-7.05,2.35-8.6,3.93-.14.14-.37.04-.37-.15v-2.29c0-.27-.12-.52-.34-.69l-.13-.1c-.2-.16-.46-.22-.71-.16l-10.74,2.29c-.4.09-.69.44-.69.85v1.47c0,.52.45.92,1.23.83l1.92-.2c.51-.05.96.35.96.86v34.91c0,.42-.3.78-.71.85l-2.69.49c-.41.08-.71.44-.71.85v1.03c0,.48.39.87.87.87h14.56c.48,0,.87-.39.87-.87v-1.04c0-.41-.29-.77-.69-.85l-2.3-.47c-.4-.08-.69-.44-.69-.85V18.53c0-.28.14-.54.36-.7,4.14-3.08,10.9-2.59,10.9,8.51s-3.39,12.74-6.78,11.81c-.36-.1-.74.03-.95.33l-.24.34c-.23.33-.21.77.05,1.07.8.9,2.44,2.37,5.18,2.37,5.52,0,11.69-5.38,11.69-15.76s-4.81-15.35-11.24-15.35" class="cls-1"></path>
        <path d="M118.86,32.21c-.41-.19-.9-.03-1.12.37-1.9,3.4-3.7,5.17-7.96,5.17-2.93,0-8.24-1.11-8.24-11.65s3.26-11.93,5.71-11.93c2.67,0,4.49,1.75,4.65,7.79.01.49-.38.89-.87.89h-5.51c-.48,0-.87.39-.87.87v1.24c0,.48.39.87.87.87h13.82c.49,0,.88-.41.87-.9-.34-10.93-6.88-13.8-12.33-13.8-8.96,0-15.4,7.29-15.4,15.43s4.01,15.68,15.02,15.68c7.86,0,10.85-4.51,12.56-8.55.18-.43-.01-.93-.43-1.12l-.77-.36Z" class="cls-1"></path>
      </g>
      <path d="M257.03,17.91c-.47,0-.91-.09-1.33-.26-.41-.18-.77-.42-1.09-.73s-.56-.67-.73-1.09c-.18-.41-.26-.85-.26-1.33s.09-.91.26-1.33c.18-.41.42-.77.73-1.09s.67-.56,1.09-.73c.41-.18.85-.26,1.33-.26s.91.09,1.33.26c.41.18.77.42,1.09.73s.56.67.73,1.09.26.85.26,1.33-.09.91-.26,1.33c-.18.41-.42.77-.73,1.09s-.67.56-1.09.73c-.41.18-.85.26-1.33.26ZM257.03,17.01c.47,0,.89-.11,1.27-.34.38-.23.68-.53.91-.91.22-.38.34-.8.34-1.26s-.11-.88-.34-1.26c-.23-.38-.53-.68-.91-.91-.38-.23-.8-.34-1.26-.34s-.88.11-1.26.34c-.38.23-.68.53-.91.91-.22.38-.34.8-.34,1.26s.11.88.34,1.26c.22.38.53.68.91.91.38.23.8.34,1.26.34ZM255.8,16.03v-3.15h1.54c.2,0,.38.04.55.12.17.08.3.2.4.36.1.15.15.34.15.56s-.05.41-.15.57-.24.27-.41.36c-.17.08-.36.12-.57.12h-1.05v-.59h.88c.12,0,.22-.04.31-.11.09-.08.13-.19.13-.34s-.04-.27-.13-.33c-.09-.07-.19-.1-.3-.1h-.52v2.54h-.82ZM257.8,14.58l.72,1.45h-.89l-.67-1.45h.85Z" class="cls-1"></path>
    </g>
  </g>
</svg>