<?xml version="1.0" encoding="utf-8"?>
<!DOCTYPE svg PUBLIC "-//W3C//DTD SVG 1.0//EN" "http://www.w3.org/TR/2001/REC-SVG-20010904/DTD/svg10.dtd">
<svg version="1.0" id="Layer_1" xmlns="http://www.w3.org/2000/svg" xmlns:xlink="http://www.w3.org/1999/xlink" x="0px" y="0px"
	 width="309.5px" height="69.8px" viewBox="0 0 309.5 69.8" enable-background="new 0 0 309.5 69.8" xml:space="preserve">
<path fill="#010101" d="M0.9,36.6C3,37,6.8,37.7,16.3,37.7c3.6,0,5.2-0.5,5.2-3.2c0-2.6-0.8-3.3-4.5-3.3h-3.9c-8,0-14-1.5-14-15.8
	c0-13.7,9.7-15.5,19.7-15.5c6.5,0,14.2,1,18.1,1.6v14.3c-4.2-0.3-8.7-1-14.5-1c-5.2,0-6.6,0.9-6.6,3.4c0,1.8,0.9,2.9,4.7,2.9
	c13.5,0,17.8,1.8,17.8,13.7c0,13.8-7.7,15.6-18.7,15.6c-6.2,0-12.5-0.5-18.7-1.3V36.6z"/>
<path fill="#010101" d="M40.6,1h17.1v32.6h14.2V49H40.6V1z"/>
<path fill="#010101" d="M74.2,1h37.6v14.8H91.3v5.1h20.5v11.2H91.3v5.1h20.5V49H74.2V1z"/>
<path fill="#010101" d="M115,1h37.6v14.8h-20.5v5.1h20.5v11.2h-20.5v5.1h20.5V49H115V1L115,1z"/>
<path fill="#010101" d="M155.8,1h27.8c10.2,0,16.1,2.8,16.1,17c0,11.2-5,17.7-16.5,17.7H173v13.4h-17.2V1z M173,24.4h4
	c4.1,0,6-1.5,6-5.5c0-3.8-1.7-5.3-5-5.3h-5V24.4z"/>
<path fill="#010101" d="M211.2,34L196.9,1h18.2l4.9,16.6h0.1L225,1h18.2l-14.3,33v15.1h-17.6L211.2,34L211.2,34z"/>
<path fill="#010101" d="M247.5,1h10.9l-6.3,20.5h-7.8L247.5,1z"/>
<path fill="#010101" d="M261.4,36.6c2.1,0.4,5.9,1.1,15.5,1.1c3.6,0,5.2-0.5,5.2-3.2c0-2.6-0.8-3.3-4.5-3.3h-3.9
	c-8,0-14-1.5-14-15.8c0-13.7,9.7-15.5,19.7-15.5c6.5,0,14.2,1,18.1,1.6v14.3c-4.2-0.3-8.7-1-14.5-1c-5.2,0-6.6,0.9-6.6,3.4
	c0,1.8,0.9,2.9,4.7,2.9c13.5,0,17.8,1.8,17.8,13.7c0,13.8-7.7,15.6-18.7,15.6c-6.2,0-12.5-0.5-18.7-1.3L261.4,36.6L261.4,36.6z"/>
<path fill="#010101" d="M305.4,10.8c-2.5,0-4.7-1.8-4.7-4.6c0-2.8,2.2-4.6,4.7-4.6s4.7,1.8,4.7,4.6C310.1,9,307.9,10.8,305.4,10.8z
	 M305.4,9.9c2,0,3.6-1.6,3.6-3.7c0-2-1.6-3.7-3.6-3.7s-3.6,1.6-3.6,3.7C301.9,8.2,303.4,9.9,305.4,9.9z M304.6,8.8h-1V3.6h1.9
	c1.3,0,2,0.4,2,1.5c0,0.9-0.6,1.3-1.3,1.4l1.4,2.2h-1.1l-1.2-2.2h-0.7V8.8L304.6,8.8z M304.6,5.8h1c0.6,0,1-0.1,1-0.8
	c0-0.6-0.6-0.7-1.1-0.7h-0.9V5.8z"/>
<path fill="#D62534" d="M4.6,60.2H0.9v-4.6h12.6v4.6H9.8v9.3H4.5L4.6,60.2L4.6,60.2z"/>
<path fill="#D62534" d="M14.2,55h5.1v4.9l0,0c0.4-1.6,1.7-2.5,3.6-2.5c2.4,0,4.1,0.9,4.1,3.3v8.7h-5.1v-6.6c0-0.9-0.4-1.3-1.2-1.3
	c-1,0-1.5,0.6-1.5,1.4v6.4h-5.1V55H14.2L14.2,55z"/>
<path fill="#D62534" d="M40.1,69c-1.6,0.7-3.6,0.9-5.9,0.9c-4.4,0-6.7-1.6-6.7-6.2c0-4.9,2.3-6.2,6.7-6.2c4.4,0,6.9,1,6.9,5.4
	c0,0.9-0.1,1.6-0.1,2.3h-8.6c0.2,1.4,1.5,1.6,3.2,1.6c1.8,0,3.6-0.2,5-0.7L40.1,69z M37.2,62.5c-0.2-1.4-1.2-1.7-2.4-1.7
	c-1.6,0-2.3,0.5-2.4,1.7H37.2z"/>
<path fill="#D62534" d="M47.8,55.6h6.7l2.1,7.1l0,0l2.3-7.1h6.5v13.9h-4.8l0.2-8.4l0,0L58,69.5h-2.8l-2.8-8.4l0,0l0.2,8.4h-4.8V55.6
	z"/>
<path fill="#D62534" d="M74.4,66.9L74.4,66.9c-0.4,2.1-1.4,3-3.9,3c-3.8,0-4.1-3.5-4.1-6.8c0-3.1,1-5.6,4.3-5.6c2.2,0,3.3,1,3.7,2.6
	l0,0v-2.2h5.1v11.7h-5.1V66.9z M73,66.1c1.1,0,1.5-0.7,1.5-2.1c0-1.3-0.4-2.1-1.5-2.1c-1.2,0-1.5,1-1.5,2.1
	C71.5,65.4,71.8,66.1,73,66.1z"/>
<path fill="#D62534" d="M81.6,61.9h-1.7v-2.4c0.9-0.7,3.1-2.8,3.9-4h2.8v2.3H90v4h-3.4v3.8c0,0.7,0.3,1,1.4,1c0.8,0,1.5-0.1,1.9-0.2
	l-0.1,3c-0.6,0.2-2.4,0.5-4.1,0.5c-2.9,0-4.1-0.6-4.1-2.9V61.9L81.6,61.9z"/>
<path fill="#D62534" d="M91.5,61.9h-1.7v-2.4c0.9-0.7,3.1-2.8,3.9-4h2.8v2.3h3.4v4h-3.4v3.8c0,0.7,0.3,1,1.4,1
	c0.8,0,1.5-0.1,1.9-0.2l-0.1,3c-0.6,0.2-2.4,0.5-4.1,0.5c-2.9,0-4.1-0.6-4.1-2.9V61.9L91.5,61.9z"/>
<path fill="#D62534" d="M100.7,57.8h4.7v3l0,0c0.1-0.8,0.4-3.3,2.7-3.3c0.4,0,0.7,0,0.9,0.1V63h-0.6c-2.2,0-2.7,0.8-2.7,2.7v3.8
	h-5.1V57.8H100.7z"/>
<path fill="#D62534" d="M122,69c-1.6,0.7-3.6,0.9-5.9,0.9c-4.4,0-6.7-1.6-6.7-6.2c0-4.9,2.3-6.2,6.7-6.2s6.9,1,6.9,5.4
	c0,0.9-0.1,1.6-0.1,2.3h-8.6c0.2,1.4,1.5,1.6,3.2,1.6c1.8,0,3.6-0.2,5-0.7L122,69z M119.1,62.5c-0.2-1.4-1.2-1.7-2.4-1.7
	c-1.6,0-2.3,0.5-2.4,1.7H119.1z"/>
<path fill="#D62534" d="M123.7,66.4c1.2,0.1,2.4,0.2,3.8,0.2s1.8-0.2,1.8-0.7c0-0.4-0.2-0.6-1.3-0.6h-0.6c-3.6,0-4.3-1.2-4.3-3.9
	c0-3.6,2.3-3.9,5.5-3.9c1.5,0,3.8,0.2,5.3,0.4v3.5c-1.1-0.1-2.3-0.2-3.5-0.2c-1.9,0-2.1,0.3-2.1,0.7c0,0.5,0.3,0.7,1.2,0.7h1.4
	c2.4,0,3.5,0.6,3.5,3.1c0,3.7-2.7,4-5.8,4c-1.8,0-3.3-0.2-5.1-0.4v-2.9H123.7L123.7,66.4z"/>
<path fill="#D62534" d="M135.2,66.4c1.2,0.1,2.4,0.2,3.8,0.2s1.8-0.2,1.8-0.7c0-0.4-0.2-0.6-1.3-0.6h-0.6c-3.6,0-4.3-1.2-4.3-3.9
	c0-3.6,2.3-3.9,5.5-3.9c1.5,0,3.8,0.2,5.3,0.4v3.5c-1.1-0.1-2.3-0.2-3.5-0.2c-1.9,0-2.1,0.3-2.1,0.7c0,0.5,0.3,0.7,1.2,0.7h1.4
	c2.4,0,3.5,0.6,3.5,3.1c0,3.7-2.7,4-5.8,4c-1.7,0-3.3-0.2-5.1-0.4v-2.9H135.2L135.2,66.4z"/>
<path fill="#D62534" d="M152.7,55.6h9c3.2,0,5,0.8,5,4.9c0,3.2-1.6,5.1-5.1,5.1h-3.5v3.9h-5.3L152.7,55.6L152.7,55.6z M158,62.4h1.6
	c1.3,0,1.9-0.4,1.9-1.6c0-1.1-0.5-1.5-1.6-1.5H158V62.4z"/>
<path fill="#D62534" d="M167.4,57.8h4.7v3l0,0c0.1-0.8,0.4-3.3,2.7-3.3c0.4,0,0.7,0,0.9,0.1V63h-0.6c-2.2,0-2.7,0.8-2.7,2.7v3.8
	h-5.1L167.4,57.8L167.4,57.8z"/>
<path fill="#D62534" d="M182.4,57.5c4.5,0,6.7,1.3,6.7,6.2c0,4.5-2.3,6.2-6.7,6.2c-4.4,0-6.7-1.7-6.7-6.2
	C175.7,58.8,178,57.5,182.4,57.5z M182.4,66.2c1.6,0,1.9-0.9,1.9-2.4s-0.3-2.3-1.9-2.3c-1.7,0-1.9,0.9-1.9,2.3
	C180.5,65.4,180.8,66.2,182.4,66.2z"/>
<path fill="#D62534" d="M190.4,64h-1.1v-3.6h1.1v-1.6c0-3,1.3-3.7,4.8-3.7c1.2,0,2.3,0.1,3.4,0.1v3.2c-0.4-0.1-0.8-0.1-1.2-0.1
	c-1.2,0-1.7,0.4-1.7,1.4v0.6h2.9v3.6h-2.9v5.6h-5.2L190.4,64L190.4,64z"/>
<path fill="#D62534" d="M210.9,69c-1.6,0.7-3.6,0.9-5.9,0.9c-4.4,0-6.7-1.6-6.7-6.2c0-4.9,2.3-6.2,6.7-6.2s6.9,1,6.9,5.4
	c0,0.9-0.1,1.6-0.1,2.3h-8.6c0.2,1.4,1.5,1.6,3.2,1.6c1.8,0,3.6-0.2,5-0.7L210.9,69z M207.9,62.5c-0.2-1.4-1.2-1.7-2.4-1.7
	c-1.6,0-2.3,0.5-2.4,1.7H207.9z"/>
<path fill="#D62534" d="M212.5,66.4c1.2,0.1,2.4,0.2,3.8,0.2c1.4,0,1.8-0.2,1.8-0.7c0-0.4-0.2-0.6-1.3-0.6h-0.6
	c-3.6,0-4.3-1.2-4.3-3.9c0-3.6,2.3-3.9,5.5-3.9c1.5,0,3.8,0.2,5.3,0.4v3.5c-1.1-0.1-2.3-0.2-3.5-0.2c-1.9,0-2.1,0.3-2.1,0.7
	c0,0.5,0.3,0.7,1.2,0.7h1.4c2.4,0,3.5,0.6,3.5,3.1c0,3.7-2.7,4-5.8,4c-1.7,0-3.3-0.2-5.1-0.4v-2.9H212.5L212.5,66.4z"/>
<path fill="#D62534" d="M224,66.4c1.2,0.1,2.4,0.2,3.8,0.2c1.4,0,1.8-0.2,1.8-0.7c0-0.4-0.2-0.6-1.3-0.6h-0.5
	c-3.6,0-4.3-1.2-4.3-3.9c0-3.6,2.3-3.9,5.5-3.9c1.5,0,3.8,0.2,5.3,0.4v3.5c-1.1-0.1-2.3-0.2-3.5-0.2c-1.9,0-2.1,0.3-2.1,0.7
	c0,0.5,0.3,0.7,1.2,0.7h1.4c2.4,0,3.5,0.6,3.5,3.1c0,3.7-2.7,4-5.8,4c-1.7,0-3.3-0.2-5.1-0.4L224,66.4L224,66.4L224,66.4z"/>
<path fill="#D62534" d="M235.7,55.6c0-0.7,0.4-0.9,1.1-0.9h2.9c0.7,0,1.1,0.2,1.1,0.9v0.6c0,0.7-0.2,0.9-1.1,0.9h-2.9
	c-0.9,0-1.1-0.2-1.1-0.9V55.6z M235.7,58c0.2,0.1,0.8,0.2,2.5,0.2l0,0c1.8,0,2.3-0.1,2.5-0.2v11.5h-5.1V58H235.7z"/>
<path fill="#D62534" d="M248.1,57.5c4.5,0,6.7,1.3,6.7,6.2c0,4.5-2.3,6.2-6.7,6.2c-4.4,0-6.7-1.7-6.7-6.2
	C241.4,58.8,243.7,57.5,248.1,57.5z M248.1,66.2c1.6,0,1.9-0.9,1.9-2.4s-0.3-2.3-1.9-2.3c-1.7,0-1.9,0.9-1.9,2.3
	C246.2,65.4,246.5,66.2,248.1,66.2z"/>
<path fill="#D62534" d="M255.7,57.8h5v2.6l0,0c0.3-1.9,1.6-3,3.7-3c2.4,0,4.1,0.9,4.1,3.3v8.7h-5.1v-6.6c0-0.9-0.4-1.3-1.2-1.3
	c-1.1,0-1.5,0.6-1.5,1.4v6.4h-5.1V57.8H255.7L255.7,57.8z"/>
<path fill="#D62534" d="M277,66.9L277,66.9c-0.4,2.1-1.4,3-3.9,3c-3.8,0-4.1-3.5-4.1-6.8c0-3.1,1-5.6,4.3-5.6c2.2,0,3.3,1,3.7,2.6
	l0,0v-2.2h5.1v11.7H277V66.9z M275.7,66.1c1.1,0,1.5-0.7,1.5-2.1c0-1.3-0.4-2.1-1.5-2.1c-1.2,0-1.5,1-1.5,2.1
	C274.2,65.4,274.4,66.1,275.7,66.1z"/>
<path fill="#D62534" d="M283.4,55h5.1v14.5h-5.1V55z"/>
<path fill="#D62534" d="M289.8,66.4c1.2,0.1,2.4,0.2,3.8,0.2c1.4,0,1.8-0.2,1.8-0.7c0-0.4-0.2-0.6-1.3-0.6h-0.6
	c-3.6,0-4.3-1.2-4.3-3.9c0-3.6,2.3-3.9,5.5-3.9c1.5,0,3.8,0.2,5.3,0.4v3.5c-1.1-0.1-2.3-0.2-3.5-0.2c-1.9,0-2.1,0.3-2.1,0.7
	c0,0.5,0.3,0.7,1.2,0.7h1.4c2.4,0,3.5,0.6,3.5,3.1c0,3.7-2.7,4-5.8,4c-1.7,0-3.3-0.2-5.1-0.4v-2.9H289.8L289.8,66.4z"/>
<path fill="#D62534" d="M306.9,59.6c-1.9,0-3.5-1.4-3.5-3.5s1.7-3.5,3.5-3.5c1.8,0,3.5,1.4,3.5,3.5S308.7,59.6,306.9,59.6z
	 M306.9,58.9c1.5,0,2.7-1.2,2.7-2.8c0-1.5-1.2-2.8-2.7-2.8s-2.7,1.2-2.7,2.8S305.3,58.9,306.9,58.9z M306.2,58.1h-0.7v-3.9h1.5
	c1,0,1.5,0.3,1.5,1.1c0,0.7-0.4,1-1,1l1,1.7h-0.8l-0.9-1.7h-0.5L306.2,58.1L306.2,58.1z M306.2,55.8h0.7c0.4,0,0.8-0.1,0.8-0.6
	c0-0.4-0.4-0.5-0.8-0.5h-0.7V55.8z"/>
</svg>
